<svg version="1.1" id="Layer_1" xmlns="http://www.w3.org/2000/svg" xmlns:xlink="http://www.w3.org/1999/xlink" x="0px" y="0px"
	 width="100%" viewBox="0 0 480 360" enable-background="new 0 0 480 360" xml:space="preserve">
<path fill="#000101" opacity="1.000000" stroke="none" 
	d="
M298.000000,361.000000 
	C198.666672,361.000000 99.833359,361.000000 1.000026,361.000000 
	C1.000018,241.000031 1.000018,121.000053 1.000009,1.000059 
	C160.999954,1.000039 320.999908,1.000039 480.999908,1.000020 
	C480.999939,120.999939 480.999939,240.999878 480.999969,360.999908 
	C420.166656,361.000000 359.333344,361.000000 298.000000,361.000000 
M407.775421,150.442917 
	C407.605103,150.114456 407.434784,149.785995 407.244598,148.698074 
	C400.830200,122.287102 388.262268,99.010315 370.699493,78.467621 
	C324.731567,24.700169 260.161163,3.602971 190.595657,27.942469 
	C111.241905,55.706661 63.718868,133.566925 74.239227,216.875336 
	C76.949074,238.334015 83.768768,258.336853 95.815933,276.411743 
	C113.938255,303.601440 139.381897,321.373047 169.425217,333.007507 
	C176.959366,335.925140 184.869232,337.872559 193.233322,340.725220 
	C213.573853,345.683899 234.195694,348.234467 255.137222,347.354004 
	C271.345581,346.672546 287.359497,344.695831 302.194946,337.408661 
	C316.841370,330.214417 320.822205,317.205109 312.986389,302.811493 
	C310.923889,299.022888 308.784851,295.171967 307.480530,291.093933 
	C303.480164,278.586853 306.665863,270.586060 318.115784,264.384064 
	C322.329010,262.101929 326.930359,260.464905 331.475586,258.880585 
	C344.518280,254.334396 357.881409,250.596603 370.638214,245.368927 
	C386.920624,238.696487 399.627594,227.662903 405.940247,210.625580 
	C412.441406,193.079254 412.474487,175.105988 408.889801,156.348907 
	C408.695251,155.544632 408.500671,154.740356 408.388428,153.404083 
	C408.273987,153.265884 408.159546,153.127670 408.019958,152.305252 
	C407.889191,151.869308 407.758423,151.433350 407.775421,150.442917 
z"/>
<path fill="#1087B4" opacity="1.000000" stroke="none" 
	d="
M408.831329,156.972931 
	C412.474487,175.105988 412.441406,193.079254 405.940247,210.625580 
	C399.627594,227.662903 386.920624,238.696487 370.638214,245.368927 
	C357.881409,250.596603 344.518280,254.334396 331.475586,258.880585 
	C326.930359,260.464905 322.329010,262.101929 318.115784,264.384064 
	C306.665863,270.586060 303.480164,278.586853 307.480530,291.093933 
	C308.784851,295.171967 310.923889,299.022888 312.986389,302.811493 
	C320.822205,317.205109 316.841370,330.214417 302.194946,337.408661 
	C287.359497,344.695831 271.345581,346.672546 255.137222,347.354004 
	C234.195694,348.234467 213.573853,345.683899 193.238235,340.389862 
	C193.638046,339.021423 194.672928,337.555359 194.317429,337.029938 
	C192.749664,334.712646 190.914246,332.534363 188.936890,330.542938 
	C173.526688,315.022766 158.009140,299.608704 142.676895,284.012268 
	C140.694687,281.995941 139.582596,279.124207 138.430115,276.749573 
	C146.765427,279.511841 154.554504,283.233734 162.742523,284.651245 
	C198.319504,290.810425 223.886292,262.795929 223.487289,228.697800 
	C219.545044,232.759735 216.331635,236.537033 212.650909,239.784653 
	C194.042236,256.203735 168.923019,256.814636 150.033417,241.472809 
	C130.868118,225.907089 125.096115,199.129028 137.149368,178.505997 
	C146.428070,162.630234 160.398926,152.621185 179.007172,151.264389 
	C197.545212,149.912735 213.816864,154.817337 223.387955,172.692078 
	C227.612762,180.582245 230.119324,189.023895 230.279007,198.010208 
	C230.657928,219.334595 230.860733,240.662109 231.225784,261.986786 
	C231.362244,269.957489 231.751602,277.923828 232.190186,286.219269 
	C233.541534,286.973022 234.721222,287.745087 235.916397,287.769806 
	C243.196777,287.920593 250.486542,288.082428 257.760376,287.846313 
	C260.515381,287.756866 263.236389,286.619080 266.102570,285.752899 
	C266.435120,285.285309 266.683807,285.079376 267.248474,284.828766 
	C267.363678,283.480194 267.208771,282.231659 266.947021,280.526123 
	C266.858795,262.732025 266.877380,245.395004 267.106873,227.695374 
	C268.726959,211.447922 268.464752,195.619812 265.537323,179.905075 
	C265.348236,178.889908 264.301147,178.034592 263.424988,176.825439 
	C260.432587,170.042511 257.668365,163.539032 255.239960,157.107132 
	C256.255188,157.629425 257.034210,157.980515 257.599091,158.545700 
	C267.559540,168.511703 277.493866,178.503830 287.123291,188.686157 
	C282.843567,190.615753 278.874359,192.349533 274.616669,194.276672 
	C274.224854,195.660248 274.121521,196.850449 274.061157,198.369812 
	C273.994324,199.123703 273.884460,199.548401 273.481720,200.208221 
	C272.632629,205.881943 272.076477,211.320572 271.520294,216.759186 
	C271.884705,216.795517 272.249146,216.831848 272.613556,216.868195 
	C272.961060,215.318039 273.308533,213.767883 273.754517,212.597443 
	C274.009094,214.537750 274.165192,216.098312 274.470612,219.152283 
	C285.912903,204.137253 298.952271,192.885834 314.994812,185.195816 
	C314.718628,184.691971 314.442444,184.188126 314.166290,183.684296 
	C308.135498,184.463165 302.104736,185.242035 296.020142,185.664490 
	C294.796051,183.549347 293.865997,181.556244 292.416290,180.070084 
	C283.373352,170.799866 274.214203,161.643005 265.415588,152.236603 
	C266.488983,149.180954 267.631927,146.375656 267.914948,143.486115 
	C268.629028,136.195648 268.251312,128.737335 269.571472,121.578712 
	C273.355743,101.058357 285.592926,89.096428 305.141205,89.101830 
	C315.080597,89.104584 324.061523,92.472099 332.233887,98.063881 
	C334.557190,99.653519 336.908966,101.201530 339.247650,102.768631 
	C339.686157,102.345581 340.124664,101.922539 340.563171,101.499489 
	C338.010284,96.009140 335.457367,90.518799 333.225830,85.128319 
	C341.808716,93.431175 350.085419,101.619026 358.328613,109.840446 
	C373.187378,124.659912 387.981110,139.545258 402.944794,154.257812 
	C404.394958,155.683624 406.845276,156.092178 408.831329,156.972931 
M381.565582,201.885559 
	C382.196564,199.477905 383.036865,197.103210 383.422363,194.656876 
	C385.094055,184.047821 378.034393,171.872757 367.856018,167.586166 
	C357.013672,163.019974 343.716400,166.063232 336.937683,174.529694 
	C329.934265,183.276871 328.489166,192.868408 333.067322,202.995331 
	C337.599548,213.020691 345.849396,218.216064 356.777405,218.308899 
	C368.154358,218.405548 376.364441,212.912491 381.565582,201.885559 
z"/>
<path fill="#0EA1D9" opacity="1.000000" stroke="none" 
	d="
M265.093567,152.448578 
	C274.214203,161.643005 283.373352,170.799866 292.416290,180.070084 
	C293.865997,181.556244 294.796051,183.549347 295.698486,185.870392 
	C292.765045,187.118576 290.099426,187.804443 287.433838,188.490311 
	C277.493866,178.503830 267.559540,168.511703 257.599091,158.545700 
	C257.034210,157.980515 256.255188,157.629425 255.274292,157.097260 
	C254.972794,157.015839 254.994019,157.083786 254.895203,156.782928 
	C254.402893,155.990402 254.009415,155.498749 253.359467,154.817413 
	C227.017960,119.256348 192.654800,107.162865 153.509995,119.586456 
	C109.870407,133.436584 85.478645,180.868851 98.816872,226.299911 
	C104.730385,246.441772 118.076157,261.267120 134.199677,274.260010 
	C134.607956,274.631897 134.858383,274.822876 135.061340,275.017120 
	C135.005753,275.031036 134.977722,274.919922 135.224335,275.129333 
	C135.840042,275.561737 136.209137,275.784729 136.594604,275.960754 
	C136.610992,275.913757 136.705017,275.946320 136.921585,276.143585 
	C137.458176,276.554321 137.778198,276.767792 138.015030,276.905121 
	C137.931839,276.828979 138.067459,276.648712 138.067459,276.648712 
	C139.582596,279.124207 140.694687,281.995941 142.676895,284.012268 
	C158.009140,299.608704 173.526688,315.022766 188.936890,330.542938 
	C190.914246,332.534363 192.749664,334.712646 194.317429,337.029938 
	C194.672928,337.555359 193.638046,339.021423 192.924789,340.160187 
	C184.869232,337.872559 176.959366,335.925140 169.425217,333.007507 
	C139.381897,321.373047 113.938255,303.601440 95.815933,276.411743 
	C83.768768,258.336853 76.949074,238.334015 74.239227,216.875336 
	C63.718868,133.566925 111.241905,55.706661 190.595657,27.942469 
	C260.161163,3.602971 324.731567,24.700169 370.699493,78.467621 
	C388.262268,99.010315 400.830200,122.287102 407.225830,149.351227 
	C407.347260,150.335388 407.487457,150.666397 407.627625,150.997406 
	C407.758423,151.433350 407.889191,151.869308 407.937744,152.772461 
	C407.806458,153.602066 407.956665,153.834198 408.306091,153.936066 
	C408.500671,154.740356 408.695251,155.544632 408.860565,156.660919 
	C406.845276,156.092178 404.394958,155.683624 402.944794,154.257812 
	C387.981110,139.545258 373.187378,124.659912 358.328613,109.840446 
	C350.085419,101.619026 341.808716,93.431175 333.256531,85.115829 
	C332.965912,85.003479 332.986023,85.066643 332.903717,84.734528 
	C332.042999,83.615227 331.264587,82.828033 330.213562,81.887161 
	C329.049103,80.746231 328.196808,79.719681 327.259613,78.777557 
	C310.664093,62.094730 290.855255,56.742882 268.674255,64.285385 
	C246.149246,71.944847 234.194061,88.861664 231.540009,112.315392 
	C231.306778,114.376419 232.242935,117.618950 233.766876,118.664841 
	C246.783051,127.597885 257.107086,138.910446 265.093567,152.448578 
z"/>
<path fill="#1087B4" opacity="1.000000" stroke="none" 
	d="
M408.347290,153.670074 
	C407.956665,153.834198 407.806458,153.602066 407.950317,153.114563 
	C408.159546,153.127670 408.273987,153.265884 408.347290,153.670074 
z"/>
<path fill="#1087B4" opacity="1.000000" stroke="none" 
	d="
M407.701538,150.720154 
	C407.487457,150.666397 407.347260,150.335388 407.235779,149.730957 
	C407.434784,149.785995 407.605103,150.114456 407.701538,150.720154 
z"/>
<path fill="#F2F5F6" opacity="1.000000" stroke="none" 
	d="
M134.033707,274.089752 
	C118.076157,261.267120 104.730385,246.441772 98.816872,226.299911 
	C85.478645,180.868851 109.870407,133.436584 153.509995,119.586456 
	C192.654800,107.162865 227.017960,119.256348 253.454697,155.134216 
	C254.202271,156.121735 254.598145,156.602753 254.994019,157.083786 
	C254.994019,157.083786 254.972794,157.015839 254.938446,157.025696 
	C257.668365,163.539032 260.432587,170.042511 263.428711,177.255798 
	C264.492157,186.544342 265.532898,195.109360 266.094727,203.705704 
	C266.624176,211.805969 266.649109,219.939224 266.895996,228.057968 
	C266.877380,245.395004 266.858795,262.732025 266.829285,280.910553 
	C266.871704,282.810974 266.925018,283.869904 266.978363,284.928833 
	C266.683807,285.079376 266.435120,285.285309 265.642578,285.674316 
	C254.043808,285.832062 243.034729,285.862091 232.025665,285.892151 
	C231.751602,277.923828 231.362244,269.957489 231.225784,261.986786 
	C230.860733,240.662109 230.657928,219.334595 230.279007,198.010208 
	C230.119324,189.023895 227.612762,180.582245 223.387955,172.692078 
	C213.816864,154.817337 197.545212,149.912735 179.007172,151.264389 
	C160.398926,152.621185 146.428070,162.630234 137.149368,178.505997 
	C125.096115,199.129028 130.868118,225.907089 150.033417,241.472809 
	C168.923019,256.814636 194.042236,256.203735 212.650909,239.784653 
	C216.331635,236.537033 219.545044,232.759735 223.487289,228.697800 
	C223.886292,262.795929 198.319504,290.810425 162.742523,284.651245 
	C154.554504,283.233734 146.765427,279.511841 138.430115,276.749573 
	C138.067459,276.648712 137.931839,276.828979 137.941177,276.581055 
	C137.535339,276.204193 137.120178,276.075256 136.705017,275.946320 
	C136.705017,275.946320 136.610992,275.913757 136.414673,275.666260 
	C135.804810,275.252502 135.391266,275.086212 134.977722,274.919922 
	C134.977722,274.919922 135.005753,275.031036 134.999847,274.749786 
	C134.673874,274.342255 134.353790,274.216003 134.033707,274.089752 
z"/>
<path fill="#C6DCE4" opacity="1.000000" stroke="none" 
	d="
M265.415588,152.236603 
	C257.107086,138.910446 246.783051,127.597885 233.766876,118.664841 
	C232.242935,117.618950 231.306778,114.376419 231.540009,112.315392 
	C234.194061,88.861664 246.149246,71.944847 268.674255,64.285385 
	C290.855255,56.742882 310.664093,62.094730 327.259613,78.777557 
	C328.196808,79.719681 329.049103,80.746231 330.345032,82.199066 
	C331.494781,83.465309 332.240417,84.265976 332.986023,85.066643 
	C332.986023,85.066643 332.965912,85.003479 332.935181,85.015961 
	C335.457367,90.518799 338.010284,96.009140 340.563171,101.499489 
	C340.124664,101.922539 339.686157,102.345581 339.247650,102.768631 
	C336.908966,101.201530 334.557190,99.653519 332.233887,98.063881 
	C324.061523,92.472099 315.080597,89.104584 305.141205,89.101830 
	C285.592926,89.096428 273.355743,101.058357 269.571472,121.578712 
	C268.251312,128.737335 268.629028,136.195648 267.914948,143.486115 
	C267.631927,146.375656 266.488983,149.180954 265.415588,152.236603 
z"/>
<path fill="#010305" opacity="1.000000" stroke="none" 
	d="
M381.418732,202.240524 
	C376.364441,212.912491 368.154358,218.405548 356.777405,218.308899 
	C345.849396,218.216064 337.599548,213.020691 333.067322,202.995331 
	C328.489166,192.868408 329.934265,183.276871 336.937683,174.529694 
	C343.716400,166.063232 357.013672,163.019974 367.856018,167.586166 
	C378.034393,171.872757 385.094055,184.047821 383.422363,194.656876 
	C383.036865,197.103210 382.196564,199.477905 381.418732,202.240524 
z"/>
<path fill="#BFDAE6" opacity="1.000000" stroke="none" 
	d="
M287.123291,188.686157 
	C290.099426,187.804443 292.765045,187.118576 295.752289,186.226807 
	C302.104736,185.242035 308.135498,184.463165 314.166290,183.684296 
	C314.442444,184.188126 314.718628,184.691971 314.994812,185.195816 
	C298.952271,192.885834 285.912903,204.137253 274.470612,219.152283 
	C274.165192,216.098312 274.009094,214.537750 273.853302,212.179108 
	C273.798370,210.536591 273.743134,209.692154 273.783020,208.572968 
	C273.818939,207.920502 273.759766,207.542786 273.801880,206.724823 
	C273.860291,204.180740 273.817474,202.076935 273.774628,199.973114 
	C273.884460,199.548401 273.994324,199.123703 274.230591,197.999359 
	C274.539703,196.227600 274.722412,195.155441 274.905121,194.083313 
	C278.874359,192.349533 282.843567,190.615753 287.123291,188.686157 
z"/>
<path fill="#2584A7" opacity="1.000000" stroke="none" 
	d="
M267.106873,227.695374 
	C266.649109,219.939224 266.624176,211.805969 266.094727,203.705704 
	C265.532898,195.109360 264.492157,186.544342 263.656860,177.535278 
	C264.301147,178.034592 265.348236,178.889908 265.537323,179.905075 
	C268.464752,195.619812 268.726959,211.447922 267.106873,227.695374 
z"/>
<path fill="#2584A7" opacity="1.000000" stroke="none" 
	d="
M232.190170,286.219269 
	C243.034729,285.862091 254.043808,285.832062 265.512878,285.880585 
	C263.236389,286.619080 260.515381,287.756866 257.760376,287.846313 
	C250.486542,288.082428 243.196777,287.920593 235.916397,287.769806 
	C234.721222,287.745087 233.541534,286.973022 232.190170,286.219269 
z"/>
<path fill="#0F7EA6" opacity="1.000000" stroke="none" 
	d="
M273.481720,200.208221 
	C273.817474,202.076935 273.860291,204.180740 273.709717,206.880142 
	C273.573517,207.933044 273.630737,208.390381 273.687927,208.847702 
	C273.743134,209.692154 273.798370,210.536591 273.754822,211.799377 
	C273.308533,213.767883 272.961060,215.318039 272.613556,216.868195 
	C272.249146,216.831848 271.884705,216.795517 271.520294,216.759186 
	C272.076477,211.320572 272.632629,205.881943 273.481720,200.208221 
z"/>
<path fill="#2584A7" opacity="1.000000" stroke="none" 
	d="
M267.248474,284.828766 
	C266.925018,283.869904 266.871704,282.810974 266.936127,281.367615 
	C267.208771,282.231659 267.363678,283.480194 267.248474,284.828766 
z"/>
<path fill="#0F7EA6" opacity="1.000000" stroke="none" 
	d="
M274.616669,194.276672 
	C274.722412,195.155441 274.539703,196.227600 274.187592,197.670197 
	C274.121521,196.850449 274.224854,195.660248 274.616669,194.276672 
z"/>
<path fill="#1087B4" opacity="1.000000" stroke="none" 
	d="
M332.903717,84.734528 
	C332.240417,84.265976 331.494781,83.465309 330.617676,82.352753 
	C331.264587,82.828033 332.042999,83.615227 332.903717,84.734528 
z"/>
<path fill="#1087B4" opacity="1.000000" stroke="none" 
	d="
M254.895203,156.782928 
	C254.598145,156.602753 254.202271,156.121735 253.711151,155.323914 
	C254.009415,155.498749 254.402893,155.990402 254.895203,156.782928 
z"/>
<path fill="#1087B4" opacity="1.000000" stroke="none" 
	d="
M134.199677,274.260010 
	C134.353790,274.216003 134.673874,274.342255 135.055435,274.735870 
	C134.858383,274.822876 134.607956,274.631897 134.199677,274.260010 
z"/>
<path fill="#1087B4" opacity="1.000000" stroke="none" 
	d="
M135.224335,275.129333 
	C135.391266,275.086212 135.804810,275.252502 136.398285,275.713257 
	C136.209137,275.784729 135.840042,275.561737 135.224335,275.129333 
z"/>
<path fill="#1087B4" opacity="1.000000" stroke="none" 
	d="
M136.921585,276.143585 
	C137.120178,276.075256 137.535339,276.204193 138.024368,276.657196 
	C137.778198,276.767792 137.458176,276.554321 136.921585,276.143585 
z"/>
<path fill="#1087B4" opacity="1.000000" stroke="none" 
	d="
M273.783020,208.572968 
	C273.630737,208.390381 273.573517,207.933044 273.608459,207.320404 
	C273.759766,207.542786 273.818939,207.920502 273.783020,208.572968 
z"/>
</svg>