<svg version="1.1" id="Layer_1" xmlns="http://www.w3.org/2000/svg" xmlns:xlink="http://www.w3.org/1999/xlink" x="0px" y="0px"
	 width="100%" viewBox="0 0 225 225" enable-background="new 0 0 225 225" xml:space="preserve">
<path fill="#FF7C00" opacity="1.000000" stroke="none" 
	d="
M1.000000,223.000000 
	C1.000000,150.312439 1.000000,77.624878 1.467937,4.440768 
	C76.623917,3.962814 151.311951,3.981407 226.000000,4.000000 
	C226.000000,76.687561 226.000000,149.375122 225.532074,222.559235 
	C150.376099,223.037201 75.688049,223.018600 1.000000,223.000000 
M216.353531,12.838496 
	C214.742401,12.559451 213.131439,12.037394 211.520142,12.036379 
	C146.220764,11.995239 80.921364,11.989298 15.622052,12.060727 
	C13.754705,12.062770 11.888329,12.950624 10.068002,14.308411 
	C10.070128,78.662697 10.062300,143.016998 10.115768,207.371246 
	C10.117640,209.624008 10.729605,211.876266 11.777574,214.501068 
	C13.254740,214.667023 14.731853,214.977600 16.209080,214.978149 
	C81.267654,215.002228 146.326263,215.010803 211.384766,214.939224 
	C213.249832,214.937164 215.113937,214.049377 216.932007,212.691620 
	C216.947495,146.269501 216.962982,79.847374 216.353531,12.838496 
z"/>
<path fill="#FFF8F1" opacity="1.000000" stroke="none" 
	d="
M226.000000,3.500000 
	C151.311951,3.981407 76.623917,3.962814 1.467937,3.972111 
	C1.048076,2.345619 0.384734,0.879428 3.500230,0.885692 
	C76.833267,1.033126 150.166672,0.999238 223.500000,1.006026 
	C224.828079,1.006149 226.627686,0.507053 226.000000,3.500000 
z"/>
<path fill="#FFF8F1" opacity="1.000000" stroke="none" 
	d="
M1.000000,223.500000 
	C75.688049,223.018600 150.376099,223.037201 225.532074,223.027893 
	C226.000000,223.997833 226.000000,224.995667 226.000000,225.996750 
	C152.162689,226.000000 78.325363,226.008316 4.488133,225.927734 
	C3.274668,225.926407 0.519536,227.532364 1.000000,223.500000 
z"/>
<path fill="#864F1F" opacity="1.000000" stroke="none" 
	d="
M11.057217,214.128769 
	C10.729605,211.876266 10.117640,209.624008 10.115768,207.371246 
	C10.062300,143.016998 10.070128,78.662697 10.501650,13.735728 
	C12.261259,13.088258 13.587210,12.948254 14.913182,12.948038 
	C80.621796,12.937359 146.330399,12.935127 212.039017,12.959019 
	C213.685547,12.959618 215.332001,13.263058 216.978485,13.425256 
	C216.962982,79.847374 216.947495,146.269501 216.498337,213.264282 
	C213.741577,213.912064 211.418518,214.051697 209.095398,214.052887 
	C143.082672,214.086716 77.069946,214.106598 11.057217,214.128769 
M214.068405,13.922891 
	C163.674194,13.905449 113.279976,13.874508 62.885757,13.878105 
	C45.923111,13.879316 28.960474,13.968277 11.339763,14.548007 
	C11.249928,15.538717 11.081667,16.529411 11.081461,17.520140 
	C11.068183,81.289047 11.062672,145.057953 11.106517,208.826828 
	C11.107469,210.212372 11.687791,211.597534 12.931577,213.077118 
	C63.325783,213.094559 113.719994,213.125519 164.114197,213.121933 
	C181.076843,213.120728 198.039474,213.031738 215.660217,212.452026 
	C215.750061,211.461304 215.918320,210.470612 215.918533,209.479874 
	C215.931808,145.710953 215.937332,81.942024 215.893478,18.173140 
	C215.892532,16.787601 215.312195,15.402461 214.068405,13.922891 
z"/>
<path fill="#FF820E" opacity="1.000000" stroke="none" 
	d="
M216.666016,13.131876 
	C215.332001,13.263058 213.685547,12.959618 212.039017,12.959019 
	C146.330399,12.935127 80.621796,12.937359 14.913182,12.948038 
	C13.587210,12.948254 12.261259,13.088258 10.478399,13.294245 
	C11.888329,12.950624 13.754705,12.062770 15.622052,12.060727 
	C80.921364,11.989298 146.220764,11.995239 211.520142,12.036379 
	C213.131439,12.037394 214.742401,12.559451 216.666016,13.131876 
z"/>
<path fill="#FF820E" opacity="1.000000" stroke="none" 
	d="
M11.417395,214.314911 
	C77.069946,214.106598 143.082672,214.086716 209.095398,214.052887 
	C211.418518,214.051697 213.741577,213.912064 216.521576,213.705765 
	C215.113937,214.049377 213.249832,214.937164 211.384766,214.939224 
	C146.326263,215.010803 81.267654,215.002228 16.209080,214.978149 
	C14.731853,214.977600 13.254740,214.667023 11.417395,214.314911 
z"/>
<path fill="#261300" opacity="1.000000" stroke="none" 
	d="
M11.997833,14.017133 
	C28.960474,13.968277 45.923111,13.879316 62.885757,13.878105 
	C113.279976,13.874508 163.674194,13.905449 214.531097,14.437325 
	C214.996567,80.962128 214.999344,146.972488 215.002121,212.982880 
	C198.039474,213.031738 181.076843,213.120728 164.114197,213.121933 
	C113.719994,213.125519 63.325783,213.094559 12.468889,212.562683 
	C12.003411,146.037872 12.000623,80.027496 11.997833,14.017133 
M80.895805,127.967957 
	C89.941811,128.019043 98.987816,128.070129 108.292267,128.457047 
	C108.496758,128.653427 108.717506,128.829422 109.326538,129.650101 
	C111.563751,137.655746 113.719620,145.685959 116.120560,153.642197 
	C116.507729,154.925186 117.927963,156.766052 118.970009,156.834396 
	C124.041809,157.167068 129.147385,156.984802 134.263351,156.984802 
	C134.263351,156.046432 134.341156,155.694748 134.252289,155.391998 
	C124.562057,122.377815 114.873909,89.362976 105.087845,56.377182 
	C104.790840,55.376080 103.487328,53.981667 102.615059,53.953651 
	C96.189026,53.747257 89.753319,53.842075 84.438057,53.842075 
	C74.579979,88.656670 64.995895,122.503639 55.227638,157.001022 
	C59.932926,157.001022 64.062202,156.823776 68.167297,157.062469 
	C70.967957,157.225327 71.851784,155.905746 72.482552,153.504059 
	C74.546509,145.645325 76.799782,137.836334 79.341255,129.609421 
	C79.550850,129.122467 79.760445,128.635529 80.895805,127.967957 
M165.562012,152.198639 
	C165.562012,128.580261 165.562012,104.961876 165.562012,81.175110 
	C159.592453,81.175110 154.316269,81.175110 148.789230,81.175110 
	C148.789230,106.487572 148.789230,131.560013 148.789230,157.014740 
	C153.619232,157.014740 158.105026,156.897400 162.581146,157.054962 
	C165.691284,157.164459 165.569229,155.188614 165.562012,152.198639 
M149.175598,54.794044 
	C148.630157,55.994568 147.440628,57.329361 147.657776,58.370907 
	C148.361832,61.747952 148.616745,66.333488 150.859711,67.978058 
	C153.371246,69.819534 158.356781,70.145844 161.338669,68.904495 
	C163.768219,67.893089 166.133362,63.600491 166.135422,60.761105 
	C166.137497,57.904488 163.828018,54.155132 161.381775,52.392532 
	C157.522308,49.611664 153.143982,50.760452 149.175598,54.794044 
z"/>
<path fill="#140600" opacity="1.000000" stroke="none" 
	d="
M11.668798,14.282570 
	C12.000623,80.027496 12.003411,146.037872 12.002022,212.515549 
	C11.687791,211.597534 11.107469,210.212372 11.106517,208.826828 
	C11.062672,145.057953 11.068183,81.289047 11.081461,17.520140 
	C11.081667,16.529411 11.249928,15.538717 11.668798,14.282570 
z"/>
<path fill="#140600" opacity="1.000000" stroke="none" 
	d="
M215.331177,212.717438 
	C214.999344,146.972488 214.996567,80.962128 214.997955,14.484447 
	C215.312195,15.402461 215.892532,16.787601 215.893478,18.173140 
	C215.937332,81.942024 215.931808,145.710953 215.918533,209.479874 
	C215.918320,210.470612 215.750061,211.461304 215.331177,212.717438 
z"/>
<path fill="#FC7B00" opacity="1.000000" stroke="none" 
	d="
M78.980255,130.008209 
	C76.799782,137.836334 74.546509,145.645325 72.482552,153.504059 
	C71.851784,155.905746 70.967957,157.225327 68.167297,157.062469 
	C64.062202,156.823776 59.932926,157.001022 55.227638,157.001022 
	C64.995895,122.503639 74.579979,88.656670 84.438057,53.842075 
	C89.753319,53.842075 96.189026,53.747257 102.615059,53.953651 
	C103.487328,53.981667 104.790840,55.376080 105.087845,56.377182 
	C114.873909,89.362976 124.562057,122.377815 134.252289,155.391998 
	C134.341156,155.694748 134.263351,156.046432 134.263351,156.984802 
	C129.147385,156.984802 124.041809,157.167068 118.970009,156.834396 
	C117.927963,156.766052 116.507729,154.925186 116.120560,153.642197 
	C113.719620,145.685959 111.563751,137.655746 109.125015,129.060089 
	C108.626930,128.353790 108.330376,128.237503 108.033821,128.121216 
	C98.987816,128.070129 89.941811,128.019043 80.129608,128.113953 
	C79.235703,128.842697 79.107986,129.425446 78.980255,130.008209 
M87.023773,97.551743 
	C85.741432,102.501427 84.459091,107.451111 83.112549,112.648628 
	C90.553551,112.648628 97.593788,112.648628 105.071182,112.648628 
	C101.734024,99.526840 98.488075,86.763687 95.242119,74.000542 
	C94.597900,73.926849 93.953674,73.853157 93.309456,73.779472 
	C91.272934,81.436897 89.236412,89.094322 87.023773,97.551743 
z"/>
<path fill="#F37700" opacity="1.000000" stroke="none" 
	d="
M165.560608,152.661865 
	C165.569229,155.188614 165.691284,157.164459 162.581146,157.054962 
	C158.105026,156.897400 153.619232,157.014740 148.789230,157.014740 
	C148.789230,131.560013 148.789230,106.487572 148.789230,81.175110 
	C154.316269,81.175110 159.592453,81.175110 165.562012,81.175110 
	C165.562012,104.961876 165.562012,128.580261 165.560608,152.661865 
z"/>
<path fill="#F97900" opacity="1.000000" stroke="none" 
	d="
M149.417847,54.501480 
	C153.143982,50.760452 157.522308,49.611664 161.381775,52.392532 
	C163.828018,54.155132 166.137497,57.904488 166.135422,60.761105 
	C166.133362,63.600491 163.768219,67.893089 161.338669,68.904495 
	C158.356781,70.145844 153.371246,69.819534 150.859711,67.978058 
	C148.616745,66.333488 148.361832,61.747952 147.657776,58.370907 
	C147.440628,57.329361 148.630157,55.994568 149.417847,54.501480 
z"/>
<path fill="#010000" opacity="1.000000" stroke="none" 
	d="
M79.160759,129.808807 
	C79.107986,129.425446 79.235703,128.842697 79.666733,128.204254 
	C79.760445,128.635529 79.550850,129.122467 79.160759,129.808807 
z"/>
<path fill="#010000" opacity="1.000000" stroke="none" 
	d="
M108.163040,128.289124 
	C108.330376,128.237503 108.626930,128.353790 108.938995,128.727570 
	C108.717506,128.829422 108.496758,128.653427 108.163040,128.289124 
z"/>
<path fill="#291400" opacity="1.000000" stroke="none" 
	d="
M87.111832,97.151749 
	C89.236412,89.094322 91.272934,81.436897 93.309456,73.779472 
	C93.953674,73.853157 94.597900,73.926849 95.242119,74.000542 
	C98.488075,86.763687 101.734024,99.526840 105.071182,112.648628 
	C97.593788,112.648628 90.553551,112.648628 83.112549,112.648628 
	C84.459091,107.451111 85.741432,102.501427 87.111832,97.151749 
z"/>
</svg>